<svg version="1.2" xmlns="http://www.w3.org/2000/svg" viewBox="0 0 900 129" width="900" height="129">
	<title>wave-bg-svg</title>
	<style>
		.s0 { fill: #0ea5e9 } 
	</style>
	<path id="Layer" class="s0" d="m0 23l21.5 5.5c21.5 5.5 64.5 16.5 107.3 11.7 42.9-4.9 85.5-25.5 128.4-25.2 42.8 0.3 85.8 21.7 128.6 33.8 42.9 12.2 85.5 15.2 128.4 7.4 42.8-7.9 85.8-26.5 128.6-38 42.9-11.5 85.5-15.9 128.4-17.2 42.8-1.3 85.8 0.3 107.3 1.2l21.5 0.8v126h-21.5c-21.5 0-64.5 0-107.3 0-42.9 0-85.5 0-128.4 0-42.8 0-85.8 0-128.6 0-42.9 0-85.5 0-128.4 0-42.8 0-85.8 0-128.6 0-42.9 0-85.5 0-128.4 0-42.8 0-85.8 0-107.3 0h-21.5z"/>
</svg>